<mxfile host="app.diagrams.net" agent="Mozilla/5.0 (Windows NT 10.0; Win64; x64) AppleWebKit/537.36 (KHTML, like Gecko) Chrome/138.0.0.0 Safari/537.36" version="28.0.7">
  <diagram name="Page-1" id="QDbd5cY-bWXGp2kaQl07">
    <mxGraphModel dx="2276" dy="838" grid="1" gridSize="10" guides="1" tooltips="1" connect="1" arrows="1" fold="1" page="1" pageScale="1" pageWidth="850" pageHeight="1100" math="0" shadow="0">
      <root>
        <mxCell id="0" />
        <mxCell id="1" parent="0" />
        <mxCell id="T_EyYF5P1BX6eirX32t8-1" value="" style="ellipse;whiteSpace=wrap;html=1;" vertex="1" parent="1">
          <mxGeometry x="80" y="60" width="120" height="80" as="geometry" />
        </mxCell>
        <mxCell id="T_EyYF5P1BX6eirX32t8-4" style="edgeStyle=orthogonalEdgeStyle;rounded=0;orthogonalLoop=1;jettySize=auto;html=1;exitX=1;exitY=0.5;exitDx=0;exitDy=0;" edge="1" parent="1" source="T_EyYF5P1BX6eirX32t8-2" target="T_EyYF5P1BX6eirX32t8-3">
          <mxGeometry relative="1" as="geometry">
            <mxPoint x="230" y="230" as="targetPoint" />
          </mxGeometry>
        </mxCell>
        <mxCell id="T_EyYF5P1BX6eirX32t8-12" style="edgeStyle=orthogonalEdgeStyle;rounded=0;orthogonalLoop=1;jettySize=auto;html=1;" edge="1" parent="1" source="T_EyYF5P1BX6eirX32t8-2">
          <mxGeometry relative="1" as="geometry">
            <mxPoint x="400" y="300" as="targetPoint" />
          </mxGeometry>
        </mxCell>
        <mxCell id="T_EyYF5P1BX6eirX32t8-2" value="" style="shape=parallelogram;perimeter=parallelogramPerimeter;whiteSpace=wrap;html=1;fixedSize=1;" vertex="1" parent="1">
          <mxGeometry x="90" y="200" width="120" height="60" as="geometry" />
        </mxCell>
        <mxCell id="T_EyYF5P1BX6eirX32t8-3" value="" style="shape=cylinder3;whiteSpace=wrap;html=1;boundedLbl=1;backgroundOutline=1;size=15;" vertex="1" parent="1">
          <mxGeometry x="280" y="120" width="60" height="100" as="geometry" />
        </mxCell>
        <mxCell id="T_EyYF5P1BX6eirX32t8-5" style="edgeStyle=orthogonalEdgeStyle;rounded=0;orthogonalLoop=1;jettySize=auto;html=1;exitX=0.5;exitY=1;exitDx=0;exitDy=0;entryX=0.417;entryY=-0.033;entryDx=0;entryDy=0;entryPerimeter=0;" edge="1" parent="1" source="T_EyYF5P1BX6eirX32t8-1" target="T_EyYF5P1BX6eirX32t8-2">
          <mxGeometry relative="1" as="geometry" />
        </mxCell>
        <mxCell id="T_EyYF5P1BX6eirX32t8-6" value="Actor" style="shape=umlActor;verticalLabelPosition=bottom;verticalAlign=top;html=1;outlineConnect=0;" vertex="1" parent="1">
          <mxGeometry x="240" y="20" width="30" height="60" as="geometry" />
        </mxCell>
        <mxCell id="T_EyYF5P1BX6eirX32t8-18" style="edgeStyle=orthogonalEdgeStyle;rounded=0;orthogonalLoop=1;jettySize=auto;html=1;" edge="1" parent="1" source="T_EyYF5P1BX6eirX32t8-7">
          <mxGeometry relative="1" as="geometry">
            <mxPoint x="440" y="300" as="targetPoint" />
          </mxGeometry>
        </mxCell>
        <mxCell id="T_EyYF5P1BX6eirX32t8-7" value="Actor" style="shape=umlActor;verticalLabelPosition=bottom;verticalAlign=top;html=1;outlineConnect=0;" vertex="1" parent="1">
          <mxGeometry x="340" y="20" width="30" height="60" as="geometry" />
        </mxCell>
        <mxCell id="T_EyYF5P1BX6eirX32t8-8" value="Actor" style="shape=umlActor;verticalLabelPosition=bottom;verticalAlign=top;html=1;outlineConnect=0;" vertex="1" parent="1">
          <mxGeometry x="295" y="20" width="30" height="60" as="geometry" />
        </mxCell>
        <mxCell id="T_EyYF5P1BX6eirX32t8-9" value="" style="shape=dataStorage;whiteSpace=wrap;html=1;fixedSize=1;" vertex="1" parent="1">
          <mxGeometry x="90" y="310" width="100" height="80" as="geometry" />
        </mxCell>
        <mxCell id="T_EyYF5P1BX6eirX32t8-14" style="edgeStyle=orthogonalEdgeStyle;rounded=0;orthogonalLoop=1;jettySize=auto;html=1;" edge="1" parent="1" source="T_EyYF5P1BX6eirX32t8-10">
          <mxGeometry relative="1" as="geometry">
            <mxPoint x="310" y="350" as="targetPoint" />
          </mxGeometry>
        </mxCell>
        <mxCell id="T_EyYF5P1BX6eirX32t8-10" value="" style="shape=dataStorage;whiteSpace=wrap;html=1;fixedSize=1;" vertex="1" parent="1">
          <mxGeometry x="360" y="310" width="150" height="80" as="geometry" />
        </mxCell>
        <mxCell id="T_EyYF5P1BX6eirX32t8-11" value="" style="shape=dataStorage;whiteSpace=wrap;html=1;fixedSize=1;size=20;" vertex="1" parent="1">
          <mxGeometry x="220" y="310" width="100" height="80" as="geometry" />
        </mxCell>
        <mxCell id="T_EyYF5P1BX6eirX32t8-15" style="edgeStyle=orthogonalEdgeStyle;rounded=0;orthogonalLoop=1;jettySize=auto;html=1;entryX=0.8;entryY=0.5;entryDx=0;entryDy=0;entryPerimeter=0;" edge="1" parent="1" source="T_EyYF5P1BX6eirX32t8-11" target="T_EyYF5P1BX6eirX32t8-9">
          <mxGeometry relative="1" as="geometry" />
        </mxCell>
        <mxCell id="T_EyYF5P1BX6eirX32t8-16" value="" style="shape=trapezoid;perimeter=trapezoidPerimeter;whiteSpace=wrap;html=1;fixedSize=1;" vertex="1" parent="1">
          <mxGeometry x="-50" y="420" width="120" height="60" as="geometry" />
        </mxCell>
        <mxCell id="T_EyYF5P1BX6eirX32t8-17" style="edgeStyle=orthogonalEdgeStyle;rounded=0;orthogonalLoop=1;jettySize=auto;html=1;entryX=0.583;entryY=0.017;entryDx=0;entryDy=0;entryPerimeter=0;" edge="1" parent="1" source="T_EyYF5P1BX6eirX32t8-9" target="T_EyYF5P1BX6eirX32t8-16">
          <mxGeometry relative="1" as="geometry" />
        </mxCell>
        <mxCell id="T_EyYF5P1BX6eirX32t8-19" value="List" style="swimlane;fontStyle=0;childLayout=stackLayout;horizontal=1;startSize=30;horizontalStack=0;resizeParent=1;resizeParentMax=0;resizeLast=0;collapsible=1;marginBottom=0;whiteSpace=wrap;html=1;" vertex="1" parent="1">
          <mxGeometry x="-230" y="530" width="320" height="120" as="geometry" />
        </mxCell>
        <mxCell id="T_EyYF5P1BX6eirX32t8-20" value="Item 1" style="text;strokeColor=none;fillColor=none;align=left;verticalAlign=middle;spacingLeft=4;spacingRight=4;overflow=hidden;points=[[0,0.5],[1,0.5]];portConstraint=eastwest;rotatable=0;whiteSpace=wrap;html=1;" vertex="1" parent="T_EyYF5P1BX6eirX32t8-19">
          <mxGeometry y="30" width="320" height="30" as="geometry" />
        </mxCell>
        <mxCell id="T_EyYF5P1BX6eirX32t8-21" value="Item 2" style="text;strokeColor=none;fillColor=none;align=left;verticalAlign=middle;spacingLeft=4;spacingRight=4;overflow=hidden;points=[[0,0.5],[1,0.5]];portConstraint=eastwest;rotatable=0;whiteSpace=wrap;html=1;" vertex="1" parent="T_EyYF5P1BX6eirX32t8-19">
          <mxGeometry y="60" width="320" height="30" as="geometry" />
        </mxCell>
        <mxCell id="T_EyYF5P1BX6eirX32t8-22" value="Item 3" style="text;strokeColor=none;fillColor=none;align=left;verticalAlign=middle;spacingLeft=4;spacingRight=4;overflow=hidden;points=[[0,0.5],[1,0.5]];portConstraint=eastwest;rotatable=0;whiteSpace=wrap;html=1;" vertex="1" parent="T_EyYF5P1BX6eirX32t8-19">
          <mxGeometry y="90" width="320" height="30" as="geometry" />
        </mxCell>
        <mxCell id="T_EyYF5P1BX6eirX32t8-24" style="edgeStyle=orthogonalEdgeStyle;rounded=0;orthogonalLoop=1;jettySize=auto;html=1;" edge="1" parent="1" source="T_EyYF5P1BX6eirX32t8-23">
          <mxGeometry relative="1" as="geometry">
            <mxPoint x="470" y="300" as="targetPoint" />
          </mxGeometry>
        </mxCell>
        <mxCell id="T_EyYF5P1BX6eirX32t8-23" value="" style="ellipse;shape=cloud;whiteSpace=wrap;html=1;" vertex="1" parent="1">
          <mxGeometry x="590" y="35" width="190" height="125" as="geometry" />
        </mxCell>
        <mxCell id="T_EyYF5P1BX6eirX32t8-25" value="" style="rhombus;whiteSpace=wrap;html=1;" vertex="1" parent="1">
          <mxGeometry x="620" y="220" width="140" height="110" as="geometry" />
        </mxCell>
        <mxCell id="T_EyYF5P1BX6eirX32t8-26" style="edgeStyle=orthogonalEdgeStyle;rounded=0;orthogonalLoop=1;jettySize=auto;html=1;entryX=0.464;entryY=0.091;entryDx=0;entryDy=0;entryPerimeter=0;" edge="1" parent="1" source="T_EyYF5P1BX6eirX32t8-23" target="T_EyYF5P1BX6eirX32t8-25">
          <mxGeometry relative="1" as="geometry" />
        </mxCell>
        <mxCell id="T_EyYF5P1BX6eirX32t8-27" value="" style="shape=cube;whiteSpace=wrap;html=1;boundedLbl=1;backgroundOutline=1;darkOpacity=0.05;darkOpacity2=0.1;" vertex="1" parent="1">
          <mxGeometry x="165" y="560" width="160" height="100" as="geometry" />
        </mxCell>
        <mxCell id="T_EyYF5P1BX6eirX32t8-28" style="edgeStyle=orthogonalEdgeStyle;rounded=0;orthogonalLoop=1;jettySize=auto;html=1;entryX=0.357;entryY=-0.008;entryDx=0;entryDy=0;entryPerimeter=0;" edge="1" parent="1" source="T_EyYF5P1BX6eirX32t8-16" target="T_EyYF5P1BX6eirX32t8-19">
          <mxGeometry relative="1" as="geometry" />
        </mxCell>
        <mxCell id="T_EyYF5P1BX6eirX32t8-30" value="&lt;h1 style=&quot;margin-top: 0px;&quot;&gt;Heading&lt;/h1&gt;&lt;p&gt;Lorem ipsum dolor sit amet, consectetur adipisicing elit, sed do eiusmod tempor incididunt ut labore et dolore magna aliqua.&lt;/p&gt;" style="text;html=1;whiteSpace=wrap;overflow=hidden;rounded=0;" vertex="1" parent="1">
          <mxGeometry x="560" y="370" width="180" height="120" as="geometry" />
        </mxCell>
        <mxCell id="T_EyYF5P1BX6eirX32t8-37" value="Vertical Flow Layout" style="swimlane;startSize=20;horizontal=1;childLayout=flowLayout;flowOrientation=north;resizable=0;interRankCellSpacing=50;containerType=tree;fontSize=12;" vertex="1" parent="1">
          <mxGeometry x="500" y="510" width="270" height="280" as="geometry" />
        </mxCell>
        <mxCell id="T_EyYF5P1BX6eirX32t8-38" value="Start" style="whiteSpace=wrap;html=1;" vertex="1" parent="T_EyYF5P1BX6eirX32t8-37">
          <mxGeometry x="85" y="40" width="100" height="40" as="geometry" />
        </mxCell>
        <mxCell id="T_EyYF5P1BX6eirX32t8-39" value="Task" style="whiteSpace=wrap;html=1;" vertex="1" parent="T_EyYF5P1BX6eirX32t8-37">
          <mxGeometry x="20" y="130" width="100" height="40" as="geometry" />
        </mxCell>
        <mxCell id="T_EyYF5P1BX6eirX32t8-40" value="" style="html=1;rounded=1;curved=0;sourcePerimeterSpacing=0;targetPerimeterSpacing=0;startSize=6;endSize=6;noEdgeStyle=1;orthogonal=1;" edge="1" parent="T_EyYF5P1BX6eirX32t8-37" source="T_EyYF5P1BX6eirX32t8-38" target="T_EyYF5P1BX6eirX32t8-39">
          <mxGeometry relative="1" as="geometry">
            <Array as="points">
              <mxPoint x="112.5" y="92" />
              <mxPoint x="70" y="118" />
            </Array>
          </mxGeometry>
        </mxCell>
        <mxCell id="T_EyYF5P1BX6eirX32t8-41" value="Task" style="whiteSpace=wrap;html=1;" vertex="1" parent="T_EyYF5P1BX6eirX32t8-37">
          <mxGeometry x="150" y="130" width="100" height="40" as="geometry" />
        </mxCell>
        <mxCell id="T_EyYF5P1BX6eirX32t8-42" value="" style="html=1;rounded=1;curved=0;sourcePerimeterSpacing=0;targetPerimeterSpacing=0;startSize=6;endSize=6;noEdgeStyle=1;orthogonal=1;" edge="1" parent="T_EyYF5P1BX6eirX32t8-37" source="T_EyYF5P1BX6eirX32t8-38" target="T_EyYF5P1BX6eirX32t8-41">
          <mxGeometry relative="1" as="geometry">
            <Array as="points">
              <mxPoint x="157.5" y="92" />
              <mxPoint x="200" y="118" />
            </Array>
          </mxGeometry>
        </mxCell>
        <mxCell id="T_EyYF5P1BX6eirX32t8-43" value="End" style="whiteSpace=wrap;html=1;" vertex="1" parent="T_EyYF5P1BX6eirX32t8-37">
          <mxGeometry x="85" y="220" width="100" height="40" as="geometry" />
        </mxCell>
        <mxCell id="T_EyYF5P1BX6eirX32t8-44" value="" style="html=1;rounded=1;curved=0;sourcePerimeterSpacing=0;targetPerimeterSpacing=0;startSize=6;endSize=6;noEdgeStyle=1;orthogonal=1;" edge="1" parent="T_EyYF5P1BX6eirX32t8-37" source="T_EyYF5P1BX6eirX32t8-39" target="T_EyYF5P1BX6eirX32t8-43">
          <mxGeometry relative="1" as="geometry">
            <Array as="points">
              <mxPoint x="70" y="182" />
              <mxPoint x="112.5" y="208" />
            </Array>
          </mxGeometry>
        </mxCell>
        <mxCell id="T_EyYF5P1BX6eirX32t8-45" value="" style="html=1;rounded=1;curved=0;sourcePerimeterSpacing=0;targetPerimeterSpacing=0;startSize=6;endSize=6;noEdgeStyle=1;orthogonal=1;" edge="1" parent="T_EyYF5P1BX6eirX32t8-37" source="T_EyYF5P1BX6eirX32t8-41" target="T_EyYF5P1BX6eirX32t8-43">
          <mxGeometry relative="1" as="geometry">
            <Array as="points">
              <mxPoint x="200" y="182" />
              <mxPoint x="157.5" y="208" />
            </Array>
          </mxGeometry>
        </mxCell>
        <mxCell id="T_EyYF5P1BX6eirX32t8-46" value="" style="shape=datastore;whiteSpace=wrap;html=1;" vertex="1" parent="1">
          <mxGeometry x="350" y="420" width="100" height="120" as="geometry" />
        </mxCell>
        <mxCell id="T_EyYF5P1BX6eirX32t8-29" style="edgeStyle=orthogonalEdgeStyle;rounded=0;orthogonalLoop=1;jettySize=auto;html=1;exitX=1;exitY=0.5;exitDx=0;exitDy=0;entryX=0.538;entryY=0;entryDx=0;entryDy=0;entryPerimeter=0;" edge="1" parent="1" source="T_EyYF5P1BX6eirX32t8-22" target="T_EyYF5P1BX6eirX32t8-27">
          <mxGeometry relative="1" as="geometry">
            <mxPoint x="300" y="780" as="targetPoint" />
            <mxPoint x="220" y="640" as="sourcePoint" />
          </mxGeometry>
        </mxCell>
        <mxCell id="T_EyYF5P1BX6eirX32t8-47" value="Tree Container" style="swimlane;startSize=20;horizontal=1;containerType=tree;" vertex="1" parent="1">
          <mxGeometry x="20" y="740" width="400" height="320" as="geometry" />
        </mxCell>
        <mxCell id="T_EyYF5P1BX6eirX32t8-48" value="" style="edgeStyle=elbowEdgeStyle;elbow=vertical;sourcePerimeterSpacing=0;targetPerimeterSpacing=0;startArrow=none;endArrow=none;rounded=0;curved=0;" edge="1" parent="T_EyYF5P1BX6eirX32t8-47" source="T_EyYF5P1BX6eirX32t8-49" target="T_EyYF5P1BX6eirX32t8-50">
          <mxGeometry relative="1" as="geometry" />
        </mxCell>
        <mxCell id="T_EyYF5P1BX6eirX32t8-49" value="Parent" style="whiteSpace=wrap;html=1;treeFolding=1;treeMoving=1;newEdgeStyle={&quot;edgeStyle&quot;:&quot;elbowEdgeStyle&quot;,&quot;startArrow&quot;:&quot;none&quot;,&quot;endArrow&quot;:&quot;none&quot;};" vertex="1" parent="T_EyYF5P1BX6eirX32t8-47">
          <mxGeometry x="140" y="60" width="120" height="40" as="geometry" />
        </mxCell>
        <mxCell id="T_EyYF5P1BX6eirX32t8-50" value="Child" style="whiteSpace=wrap;html=1;treeFolding=1;treeMoving=1;newEdgeStyle={&quot;edgeStyle&quot;:&quot;elbowEdgeStyle&quot;,&quot;startArrow&quot;:&quot;none&quot;,&quot;endArrow&quot;:&quot;none&quot;};" vertex="1" parent="T_EyYF5P1BX6eirX32t8-47">
          <mxGeometry x="140" y="140" width="120" height="40" as="geometry" />
        </mxCell>
      </root>
    </mxGraphModel>
  </diagram>
</mxfile>
